<svg width="512" height="512" viewBox="0 0 512 512" fill="none" xmlns="http://www.w3.org/2000/svg">
<g clip-path="url(#clip0_1_74)">
<rect width="512" height="512" rx="100" fill="white"/>
<g filter="url(#filter0_d_1_74)">
<path d="M427.75 400.878C431.635 400.878 434.785 404.028 434.785 407.913C434.785 411.798 431.635 414.948 427.75 414.948H83.0352C79.1499 414.948 76 411.798 76 407.913C76 404.028 79.1498 400.878 83.0352 400.878H427.75ZM427.882 372.738C431.767 372.738 434.917 375.888 434.917 379.773C434.917 383.659 431.767 386.808 427.882 386.808H83.167C79.2818 386.808 76.1321 383.659 76.1318 379.773C76.1318 375.888 79.2817 372.738 83.167 372.738H427.882ZM364.866 101.808C371.277 95.3975 381.67 95.3973 388.08 101.808L431.192 144.92C437.603 151.33 437.603 161.724 431.192 168.135L280.496 318.828C278.205 321.119 275.288 322.684 272.11 323.319L218.219 334.096C206.733 336.393 196.608 326.267 198.904 314.781L209.682 260.89L209.812 260.297C210.515 257.35 212.022 254.65 214.17 252.502L364.866 101.808ZM146.645 176.155C148.585 174.101 152.028 175.088 152.585 177.858L158.263 206.096C158.472 207.136 159.142 208.027 160.085 208.511L184.983 221.284L185.405 221.537C187.395 222.931 187.386 225.995 185.237 227.343L160.653 242.764C159.799 243.3 159.217 244.179 159.06 245.177L154.452 274.331C154.018 277.079 150.706 278.24 148.66 276.362L128.145 257.518C127.339 256.778 126.233 256.461 125.158 256.661L97.7734 261.771L97.2686 261.828C94.7818 261.937 92.9185 259.379 93.9385 256.978L105.48 229.813C105.875 228.884 105.848 227.829 105.407 226.922L92.7314 200.816C91.5503 198.384 93.4656 195.587 96.1572 195.813L124.041 198.175C124.965 198.253 125.877 197.957 126.579 197.365L126.865 197.093L146.645 176.155Z" fill="url(#paint0_linear_1_74)"/>
</g>
</g>
<defs>
<filter id="filter0_d_1_74" x="36" y="56.9999" width="440" height="397.948" filterUnits="userSpaceOnUse" color-interpolation-filters="sRGB">
<feFlood flood-opacity="0" result="BackgroundImageFix"/>
<feColorMatrix in="SourceAlpha" type="matrix" values="0 0 0 0 0 0 0 0 0 0 0 0 0 0 0 0 0 0 127 0" result="hardAlpha"/>
<feOffset/>
<feGaussianBlur stdDeviation="20"/>
<feComposite in2="hardAlpha" operator="out"/>
<feColorMatrix type="matrix" values="0 0 0 0 0.379808 0 0 0 0 0.834615 0 0 0 0 1 0 0 0 0.2 0"/>
<feBlend mode="normal" in2="BackgroundImageFix" result="effect1_dropShadow_1_74"/>
<feBlend mode="normal" in="SourceGraphic" in2="effect1_dropShadow_1_74" result="shape"/>
</filter>
<linearGradient id="paint0_linear_1_74" x1="256" y1="97" x2="256" y2="415" gradientUnits="userSpaceOnUse">
<stop stop-color="#B9ECFF"/>
<stop offset="1" stop-color="#61D5FF"/>
</linearGradient>
<clipPath id="clip0_1_74">
<rect width="512" height="512" fill="white"/>
</clipPath>
</defs>
</svg>
